<?xml version="1.0" encoding="UTF-8" standalone="no"?>
<!-- Created with Inkscape (http://www.inkscape.org/) -->

<svg
   xmlns:dc="http://purl.org/dc/elements/1.1/"
   xmlns:cc="http://creativecommons.org/ns#"
   xmlns:rdf="http://www.w3.org/1999/02/22-rdf-syntax-ns#"
   xmlns:svg="http://www.w3.org/2000/svg"
   xmlns="http://www.w3.org/2000/svg"
   xmlns:sodipodi="http://sodipodi.sourceforge.net/DTD/sodipodi-0.dtd"
   xmlns:inkscape="http://www.inkscape.org/namespaces/inkscape"
   id="svg2"
   version="1.1"
   inkscape:version="0.91 r13725"
   width="600"
   height="500"
   viewBox="0 0 600 500"
   sodipodi:docname="sheldon.svg"
   inkscape:export-filename="/var/www/lib/sheldon/resources/logo/sheldon.png"
   inkscape:export-xdpi="90"
   inkscape:export-ydpi="90"
   style="enable-background:new">
  <metadata
     id="metadata8">
    <rdf:RDF>
      <cc:Work
         rdf:about="">
        <dc:format>image/svg+xml</dc:format>
        <dc:type
           rdf:resource="http://purl.org/dc/dcmitype/StillImage" />
        <dc:title></dc:title>
        <cc:license
           rdf:resource="http://opensource.org/licenses/bsd-license.php" />
      </cc:Work>
    </rdf:RDF>
  </metadata>
  <defs
     id="defs6">
    <filter
       style="color-interpolation-filters:sRGB"
       inkscape:label="Blur"
       id="filter3744">
      <feGaussianBlur
         stdDeviation="20 20"
         result="blur"
         id="feGaussianBlur3746" />
    </filter>
  </defs>
  <sodipodi:namedview
     pagecolor="#ffffff"
     bordercolor="#666666"
     borderopacity="1"
     objecttolerance="10"
     gridtolerance="10"
     guidetolerance="10"
     inkscape:pageopacity="0"
     inkscape:pageshadow="2"
     inkscape:window-width="1920"
     inkscape:window-height="1017"
     id="namedview4"
     showgrid="false"
     inkscape:zoom="1.1935962"
     inkscape:cx="171.31994"
     inkscape:cy="195.03327"
     inkscape:window-x="773"
     inkscape:window-y="0"
     inkscape:window-maximized="1"
     inkscape:current-layer="layer3" />
  <g
     inkscape:groupmode="layer"
     id="layer2"
     inkscape:label="White BG">
    <rect
       style="fill:#ffffff;fill-opacity:1;stroke:none;stroke-width:3;stroke-linecap:square;stroke-linejoin:miter;stroke-miterlimit:4;stroke-dasharray:none;stroke-dashoffset:0;stroke-opacity:1"
       id="rect3351"
       width="600"
       height="500"
       x="0"
       y="-1.8207658e-14" />
  </g>
  <g
     inkscape:groupmode="layer"
     id="layer1"
     inkscape:label="Sheldon"
     style="display:inline">
    <path
       style="fill:#000000"
       d="m 86.25,498.75 c 0,-0.6875 0.248053,-1.25 0.551229,-1.25 0.303176,0 0.898872,0.5625 1.323771,1.25 0.424899,0.6875 0.176845,1.25 -0.551229,1.25 C 86.845697,500 86.25,499.4375 86.25,498.75 Z m 41.25467,0.3125 c 0.009,-1.82991 4.97872,-9.0625 6.22696,-9.0625 1.41874,0 1.61599,2.95048 0.48051,7.1875 -0.5143,1.91914 -1.70004,2.8125 -3.73293,2.8125 -1.63856,0 -2.97711,-0.42187 -2.97454,-0.9375 z m 11.94198,-4.26558 c 1.00966,-2.86168 4.07846,-8.75414 6.81955,-13.09436 2.74109,-4.3402 4.9838,-8.2414 4.9838,-8.66931 0,-0.99662 13.24557,-22.4678 16.90816,-27.40825 1.52903,-2.0625 3.75805,-5.85937 4.95338,-8.4375 1.19532,-2.57812 2.67927,-4.6875 3.29766,-4.6875 0.61839,0 0.19967,2.10938 -0.9305,4.6875 -1.13016,2.57813 -2.68919,6.375 -3.4645,8.4375 -2.08338,5.54223 -19.12575,38.88024 -24.12223,47.1875 -3.32616,5.53015 -5.00991,7.1875 -7.30202,7.1875 -2.95563,0 -2.96461,-0.0409 -1.1433,-5.20308 z m 67.67017,1.14058 c 1.242,-2.23437 2.53943,-4.34375 2.88318,-4.6875 0.34375,-0.34375 1.1875,-1.51317 1.875,-2.59871 4.50175,-7.10814 10.22221,-13.74647 12.42099,-14.41402 1.41845,-0.43063 3.56339,-1.64737 4.76651,-2.70386 1.80842,-1.58801 2.2046,-1.61655 2.28619,-0.16465 0.0542,0.96594 0.6723,0.18341 1.37339,-1.73893 0.85693,-2.34967 2.01893,-3.37385 3.54549,-3.125 1.24896,0.20359 3.76243,-1.02898 5.58552,-2.73904 1.82309,-1.71006 3.98008,-3.11631 4.79331,-3.125 0.81323,-0.009 1.66838,-0.57829 1.90033,-1.26579 0.23195,-0.6875 2.9596,-2.24689 6.06146,-3.46531 3.10186,-1.21843 7.27919,-3.85475 9.28295,-5.85853 2.00376,-2.00376 4.61986,-3.61519 5.81354,-3.58094 9.23402,0.26491 31.24965,-2.48055 32.19815,-4.01525 0.36626,-0.59262 2.4528,-0.85136 4.63673,-0.57496 2.18395,0.27639 4.63404,-0.0479 5.44465,-0.72065 1.00299,-0.83241 1.6957,-0.64497 2.16835,0.5867 0.42892,1.11774 1.67982,1.55221 3.27098,1.13613 1.41705,-0.37058 2.57646,-0.0951 2.57646,0.61215 0,0.70725 2.27851,1.67087 5.06335,2.14136 2.78485,0.4705 5.66924,1.50431 6.40976,2.29737 0.76003,0.81396 3.72662,1.25102 6.81165,1.00357 3.00588,-0.24112 5.46524,0.10275 5.46524,0.76415 0,0.6614 1.40625,0.93371 3.125,0.60515 2.4743,-0.47299 3.125,-0.0869 3.125,1.85461 0,2.87859 4.11064,7.01876 5.61435,5.65467 0.57005,-0.51712 0.65686,-0.2776 0.1929,0.53228 -0.50427,0.88027 0.29491,1.81786 1.9871,2.33117 1.55686,0.47227 4.04199,1.96607 5.52252,3.31957 2.59478,2.37213 2.74176,2.37822 4.07518,0.16882 1.26216,-2.09132 1.81981,-1.79942 6.36725,3.33294 2.74116,3.09375 4.99407,5.0625 5.00646,4.375 0.0125,-0.6875 0.56356,-0.40625 1.22484,0.625 0.66129,1.03125 0.91815,2.78965 0.57081,3.90755 -0.40681,1.30931 0.26517,2.26702 1.88849,2.69154 1.386,0.36245 3.04481,1.97905 3.68625,3.59245 0.64145,1.6134 2.87183,4.50311 4.9564,6.42156 2.08459,1.91846 3.49695,4.25219 3.13859,5.18606 -0.35836,0.93388 -0.0507,2.0693 0.68365,2.52318 2.0799,1.28545 1.57077,3.17858 -0.85229,3.16912 -1.20312,-0.005 -3.53921,-1.99327 -5.19131,-4.41906 -1.6521,-2.42578 -8.50069,-9.59381 -15.2191,-15.92895 -20.4384,-19.27247 -37.89097,-26.84786 -68.02709,-29.52754 -10.14945,-0.90248 -25.7241,1.45469 -33.73824,5.10617 -2.61205,1.19013 -3.51919,1.18168 -4.27411,-0.0399 -0.73625,-1.19126 -1.3288,-1.10421 -2.55696,0.37564 -0.87924,1.05942 -4.76709,3.73416 -8.63965,5.94386 -5.85994,3.3437 -12.45112,7.80884 -19.54104,13.2379 -0.6875,0.52645 -2.23437,0.75914 -3.4375,0.5171 -1.50604,-0.30298 -2.1875,0.34573 -2.1875,2.08237 0,1.38734 -2.69067,5.22547 -5.97926,8.52916 -3.2886,3.30368 -7.55818,7.9384 -9.48797,10.29935 -3.11168,3.80695 -3.79356,4.11473 -6.02653,2.72022 -1.41747,-0.88523 -2.15529,-0.9858 -1.68828,-0.23014 0.46033,0.7448 -0.0694,1.34228 -1.18986,1.34228 -1.81029,0 -1.78556,-0.42076 0.23872,-4.0625 z m 31.63318,-4.00071 0,-8.18679 8.4375,-0.16492 c 10.07121,-0.19687 24.34664,-0.82862 26.00289,-1.15074 2.61327,-0.50825 4.41439,0.13486 3.68461,1.31566 -0.4249,0.6875 0.1376,1.25 1.25,1.25 1.1124,0 1.6749,-0.5625 1.25,-1.25 -0.4249,-0.6875 0.1376,-1.25 1.25,-1.25 1.1124,0 1.6749,0.5625 1.25,1.25 -0.4249,0.6875 0.38565,1.25 1.80122,1.25 1.41558,0 2.43316,-0.67845 2.26128,-1.50765 -0.40422,-1.95017 7.96446,-3.28068 21.38374,-3.3997 8.7957,-0.078 10.33255,0.2036 9.72672,1.78235 -0.4894,1.27536 0.0675,1.875 1.74126,1.875 1.35343,0 2.32016,-0.6799 2.14828,-1.51089 -0.34783,-1.68168 6.69749,-2.68621 27.94706,-3.98474 l 13.25956,-0.81026 0.689,10.96544 c 0.37897,6.031 0.52282,11.13605 0.31968,11.34456 -0.20315,0.2085 -3.6675,0.17008 -7.69858,-0.0854 -5.53588,-0.35085 -6.64105,-0.70868 -4.51672,-1.46239 4.87079,-1.72818 2.81077,-10.09798 -3.1804,-12.9219 -2.83018,-1.334 -3.59325,-1.29151 -4.7302,0.26335 -2.14061,2.92748 -8.2441,4.87334 -9.40321,2.99786 -0.5273,-0.85318 -0.66539,-2.0259 -0.30687,-2.606 0.72292,-1.16971 -12.32202,0.23318 -13.31682,1.43213 -1.82954,2.20497 -6.07479,3.32581 -9.6875,2.55772 -2.23438,-0.47505 -4.0625,-0.50194 -4.0625,-0.0598 0,0.44218 -6.60938,0.92403 -14.6875,1.07076 -8.07813,0.14674 -16.375,0.30597 -18.4375,0.35384 -7.32554,0.17003 -10.625,-0.22552 -10.625,-1.27376 0,-0.58423 0.70312,-1.34595 1.5625,-1.69271 0.98177,-0.39615 1.03866,-0.66716 0.15305,-0.72916 -0.77519,-0.0543 -2.11545,0.752 -2.97834,1.79172 -1.15269,1.3889 -2.00114,1.5317 -3.19816,0.53826 -1.1757,-0.97575 -2.43443,-0.92795 -4.52165,0.17171 -3.94064,2.07614 -4.72839,3.58948 -3.52121,6.76458 0.9575,2.51842 0.61621,2.71735 -5.11009,2.97864 l -6.1361,0.27995 0,-8.1868 z m 164.89529,4.66281 c -0.71105,-1.87022 -1.03264,-4.39539 -0.71461,-5.61149 0.31801,-1.21609 -0.81242,-6.20979 -2.51205,-11.09711 -3.33232,-9.58208 -2.96964,-12.32912 0.97333,-7.37232 3.07629,3.86727 4.85804,8.09487 4.85804,11.52677 0,1.44799 0.76765,3.52074 1.70589,4.60613 0.93825,1.08538 2.02787,4.0828 2.42141,6.66092 0.66264,4.34108 0.48809,4.6875 -2.36182,4.6875 -2.19882,0 -3.44644,-0.97077 -4.37019,-3.4004 z m 56.99842,2.18066 c -0.7394,-1.19635 -11.48858,-8.4943 -16.11872,-10.94346 -1.2925,-0.68369 -4.80813,-0.96601 -7.8125,-0.62737 -4.36302,0.49177 -5.46249,0.22616 -5.46249,-1.31963 0,-4.54412 1.51018,-5.8898 6.60979,-5.8898 4.10272,0 7.08976,1.34284 15.37098,6.91006 5.65327,3.80054 10.59275,7.72856 10.97663,8.72893 0.38389,1.00037 1.47289,1.5215 2.42001,1.15805 0.94713,-0.36345 2.44355,0.20854 3.32538,1.27107 1.40142,1.68862 0.9637,1.93189 -3.47597,1.93189 -2.7936,0 -5.41851,-0.54888 -5.83311,-1.21974 z m 14.3829,-4.71776 c -2.06813,-4.13238 -3.1218,-5.27245 -3.46573,-3.75 -0.76609,3.39108 -2.16955,2.67544 -7.69448,-3.92347 -3.22231,-3.84871 -5.1164,-7.36311 -5.1164,-9.49327 0,-3.35215 0.0362,-3.33806 4.0625,1.5807 2.23438,2.72964 4.73255,6.01724 5.55149,7.30577 1.3638,2.14578 1.49517,2.15885 1.5625,0.15527 0.0405,-1.20312 -0.39657,-2.1875 -0.97109,-2.1875 -0.98096,0 -5.22016,-8.19976 -19.71026,-38.125 -6.24103,-12.8891 -10.27749,-19.78904 -13.58943,-23.22986 -1.04815,-1.08893 -1.91822,-2.49518 -1.93351,-3.125 -0.0153,-0.62983 -1.12777,-2.55139 -2.4722,-4.27014 -1.34443,-1.71875 -2.45691,-4.40959 -2.4722,-5.97962 -0.0153,-1.57005 -1.85592,-4.64074 -4.0903,-6.82376 -5.10031,-4.98306 -7.01628,-8.64655 -7.93611,-15.17451 -0.39889,-2.83091 -1.28513,-6.9877 -1.9694,-9.2373 -1.32158,-4.34476 0.97225,-26.53481 2.74295,-26.53481 0.50595,0 0.80651,4.07813 0.66792,9.0625 -0.3806,13.68877 5.5348,40.9375 8.88708,40.9375 0.91853,0 1.67006,0.48334 1.67006,1.07409 0,0.59075 1.96329,3.54387 4.36286,6.5625 2.39959,3.01862 4.36834,6.26368 4.375,7.21125 0.01,1.44678 4.36365,9.69771 9.38714,17.79103 3.56977,5.75125 8.42652,15.57323 10.68363,21.60589 1.39884,3.73876 3.63141,8.18099 4.96126,9.8716 2.30395,2.929 17.48011,32.35983 17.48011,33.89883 0,2.43497 -2.41568,-0.0921 -4.97339,-5.20269 z m 7.47339,4.0077 c 0,-1.11136 0.87881,-1.77402 2.07219,-1.5625 2.87236,0.50913 3.69004,-3.2642 4.77187,-22.02081 0.6547,-11.35098 1.39143,-16.09759 2.56864,-16.54933 0.90785,-0.34837 2.03454,-2.97996 2.50375,-5.84798 1.62227,-9.91599 8.31796,-28.67872 12.95659,-36.30705 2.561,-4.21164 6.26727,-11.17315 8.23616,-15.47003 1.96889,-4.29687 3.94978,-7.8125 4.40196,-7.8125 2.30733,0 2.00264,2.3814 -1.49592,11.69174 -2.10463,5.6008 -6.62029,18.62076 -10.03481,28.93326 -6.03299,18.22073 -6.23904,19.3322 -7.29984,39.375 -1.39651,26.38584 -1.65824,27.5 -6.46005,27.5 -3.06207,0 -3.57881,-0.39556 -2.85761,-2.1875 1.48493,-3.68957 4.29952,-20.6456 4.30545,-25.9375 0.009,-8.2944 -2.44122,-2.05244 -4.92684,12.54975 -1.19941,7.04611 -2.56513,13.43305 -3.03491,14.19319 -1.29047,2.08801 -5.70663,1.66414 -5.70663,-0.54774 z m 22.99011,-0.0445 c 0.41668,-1.08582 1.60193,-8.82415 2.63389,-17.19627 1.03196,-8.37213 2.43874,-17.18313 3.12615,-19.58 0.68741,-2.39689 1.24985,-6.96284 1.24985,-10.14657 0,-3.18372 0.76374,-7.96868 1.6972,-10.63325 0.93346,-2.66456 2.09096,-7.50342 2.57222,-10.75302 0.48127,-3.2496 1.38974,-6.22648 2.01883,-6.61528 0.6291,-0.38881 1.71009,-2.80992 2.40221,-5.38026 0.69213,-2.57034 2.10871,-5.78096 3.14799,-7.13473 1.68874,-2.19973 1.69209,-1.88176 0.0315,2.99154 -3.55542,10.43394 -8.31871,36.54617 -7.52431,41.24814 0.43405,2.56911 -0.065,8.09689 -1.14452,12.67723 -1.05277,4.46695 -1.92865,11.49672 -1.94637,15.62172 -0.0177,4.125 -0.3809,9.60938 -0.80704,12.1875 -0.69307,4.1931 -1.16717,4.6875 -4.49497,4.6875 -2.8764,0 -3.54835,-0.44779 -2.9626,-1.97425 z m 15.8497,-5.21325 c 1.35035,-3.95312 3.19683,-7.75 4.10332,-8.4375 1.76807,-1.34096 6.28013,-12.10044 11.00811,-26.25 1.60807,-4.8125 3.63057,-9.49699 4.49445,-10.40997 0.86387,-0.91298 2.14928,-2.7411 2.85647,-4.0625 1.70716,-3.18985 4.36616,-3.06177 4.61355,0.22223 0.10875,1.44363 1.16359,3.33103 2.3441,4.19424 1.31105,0.95866 1.83231,2.38796 1.33936,3.67256 -0.49926,1.30106 -0.086,2.37975 1.08364,2.82859 1.62014,0.6217 1.5724,0.96696 -0.33357,2.41293 -3.56162,2.70201 -4.43302,2.06303 -3.55672,-2.60808 0.65035,-3.46665 0.41972,-4.375 -1.11088,-4.375 -1.0624,5e-5 -1.93164,-0.60932 -1.93164,-1.35411 0,-0.7448 -0.6466,-1.13864 -1.43689,-0.87522 -0.79028,0.26344 -2.76557,4.38844 -4.38954,9.16668 -1.62395,4.77824 -4.01616,11.78145 -5.31601,15.5627 -1.29985,3.78125 -3.78211,9.40625 -5.51614,12.5 -1.73401,3.09375 -3.53906,7.73438 -4.01121,10.3125 -0.70197,3.83314 -1.39039,4.6875 -3.777,4.6875 l -2.91856,0 2.45516,-7.1875 z m 6.16843,6.35416 c 0.005,-0.57291 1.1471,-2.72916 2.53905,-4.79166 1.39195,-2.0625 3.42107,-5.57812 4.50918,-7.8125 2.03265,-4.17395 4.76821,-5.76454 3.29028,-1.91314 -3.25424,8.48043 -10.36979,18.47204 -10.33851,14.5173 z m 11.5139,-0.10412 c 0.26425,-0.51563 1.75012,-3.75 3.30191,-7.1875 5.21327,-11.5483 5.27296,-11.6318 4.4672,-6.25 -1.38948,9.28047 -3.49808,14.375 -5.94976,14.375 -1.2649,0 -2.08362,-0.42188 -1.81935,-0.9375 z M 555,497.48304 c 0,-1.38433 0.68184,-3.60875 1.51519,-4.94315 2.32653,-3.72539 -0.10988,-4.78509 -2.92276,-1.27122 l -2.48661,3.10633 0.70508,-3.75 c 0.38779,-2.0625 0.8238,-6.70313 0.96892,-10.3125 0.14512,-3.60938 0.76501,-6.5625 1.37753,-6.5625 0.61251,0 0.75021,-1.44815 0.30597,-3.21813 -0.70801,-2.82095 -0.45477,-3.16806 2.05199,-2.8125 2.28438,0.32403 2.92109,1.2858 3.16485,4.78063 0.16785,2.40625 0.65356,6.20312 1.07938,8.4375 0.61453,3.22467 0.35826,4.0625 -1.24266,4.0625 -1.10929,0 -2.01688,0.5625 -2.01688,1.25 0,0.6875 1.06116,1.25 2.35812,1.25 1.58159,0 2.57218,1.13197 3.00814,3.4375 0.35752,1.89062 1.04947,4.70312 1.53767,6.25 0.82215,2.60495 0.50791,2.8125 -4.25814,2.8125 C 555.82178,500 555,499.59805 555,497.48304 Z m 14.55811,-4.00545 c 0.93054,-3.58733 1.72754,-9.6342 1.77113,-13.4375 0.11562,-10.09067 2.19756,-4.00402 3.23152,9.44747 L 575.36881,500 l -3.7513,0 -3.7513,0 1.6919,-6.52241 z M 473.73647,481.5625 c -0.007,-0.51562 -0.82428,-3.60937 -1.81521,-6.875 -1.80105,-5.93543 -0.35226,-8.64035 1.67378,-3.125 1.89716,5.16453 2.62223,10.9375 1.37371,10.9375 -0.67031,0 -1.22484,-0.42187 -1.23228,-0.9375 z M 427.5,480 c 0,-0.6875 0.5625,-1.25 1.25,-1.25 0.6875,0 1.25,0.5625 1.25,1.25 0,0.6875 -0.5625,1.25 -1.25,1.25 -0.6875,0 -1.25,-0.5625 -1.25,-1.25 z m -8.10618,-2.46954 c -0.44911,-0.72669 -1.34019,-0.99762 -1.98019,-0.60207 -2.33903,1.44559 -1.08173,-1.56954 1.7727,-4.25114 2.92798,-2.7507 2.94485,-2.75157 5.9375,-0.30662 1.97355,1.61236 2.57316,2.86219 1.75117,3.65015 -2.08691,2.00049 -6.61331,2.91391 -7.48118,1.50968 z M 548.08495,472.5 c 0.22899,-3.09375 0.55799,-5.90625 0.73109,-6.25 0.17311,-0.34375 0.37281,-1.40221 0.44377,-2.35214 0.071,-0.94991 1.39155,-2.5654 2.93462,-3.58996 3.63191,-2.4115 3.7575,-0.39944 0.40987,6.5671 -1.32146,2.75 -2.97259,6.40625 -3.66917,8.125 -1.08148,2.66843 -1.20569,2.30316 -0.85018,-2.5 z m -416.79,3.28131 c -0.0899,-2.18803 6.73432,-16.46436 8.88806,-18.59381 3.15519,-3.1196 3.71535,-2.71016 1.71019,1.25 -0.95729,1.89063 -2.35021,5.13186 -3.09539,7.20275 -1.41165,3.92308 -7.4244,12.05005 -7.50286,10.14106 z M 523.12831,470 c 0.66123,-6.55761 3.27813,-16.19617 3.90284,-14.375 0.23584,0.6875 -0.67344,5.46875 -2.02062,10.625 -1.90707,7.29917 -2.32383,8.1295 -1.88222,3.75 z M 396.25,466.25 c 0,-0.6875 0.84375,-1.25 1.875,-1.25 1.03125,0 1.875,0.5625 1.875,1.25 0,0.6875 -0.84375,1.25 -1.875,1.25 -1.03125,0 -1.875,-0.5625 -1.875,-1.25 z m 68.89452,-5.12273 c -1.67733,-4.81162 -1.68138,-4.87727 -0.30077,-4.87727 1.11755,0 3.07111,7.5018 2.18445,8.38846 -0.26902,0.26904 -1.11669,-1.311 -1.88367,-3.51118 z m -69.44847,-0.18977 c 1.05436,-3.4301 1.58186,-4.07625 2.54309,-3.11504 1.07722,1.07723 -0.68828,5.92754 -2.15761,5.92754 -0.71912,0 -0.88283,-1.19449 -0.38548,-2.8125 z m 76.92855,-5 c -0.0685,-2.57812 0.4379,-4.6875 1.1254,-4.6875 1.43096,0 1.43096,1.78181 0,6.25 -0.89317,2.78894 -1.0142,2.6209 -1.1254,-1.5625 z M 181.53646,451.01563 C 182.30905,448.69785 185,448.31342 185,450.52084 c 0,1.08854 -0.89062,1.97916 -1.97916,1.97916 -1.08855,0 -1.75652,-0.66798 -1.48438,-1.48437 z M 527.5,445.2821 c 0,-2.824 0.50899,-5.44914 1.13109,-5.83361 0.64532,-0.39883 0.83989,1.58262 0.45302,4.61372 -0.89835,7.03864 -1.58411,7.56673 -1.58411,1.21989 z M 531.25,435 c 0,-0.6875 0.5625,-1.25 1.25,-1.25 0.6875,0 1.25,0.5625 1.25,1.25 0,0.6875 -0.5625,1.25 -1.25,1.25 -0.6875,0 -1.25,-0.5625 -1.25,-1.25 z m -132.48652,-3.10876 c -0.92249,-1.11153 -1.20745,-3.19426 -0.70887,-5.18082 0.99144,-3.9502 2.5937,-2.69095 3.78801,2.97708 0.91326,4.33413 -0.48221,5.33285 -3.07914,2.20374 z m 134.86687,-2.66042 c -1.44982,-1.74692 -1.35801,-1.95759 0.68086,-1.5625 1.29614,0.25118 2.59074,1.15981 2.87688,2.01918 0.74245,2.22986 -1.57499,1.9324 -3.55774,-0.45668 z m -26.4985,-37.32088 c 1.84508,-3.76204 3.56428,-6.63048 3.82045,-6.3743 0.56156,0.56156 -5.74339,13.21436 -6.58477,13.21436 -0.32471,0 0.91925,-3.07803 2.76432,-6.84006 z m -117.03316,-7.43078 c -0.0542,-1.3177 0.24116,-2.05598 0.65652,-1.64062 0.41536,0.41536 0.45977,1.49348 0.0986,2.39584 -0.39903,0.99716 -0.69523,0.70097 -0.7552,-0.75522 z M 511.25,381.91898 c 0,-1.00707 1.16494,-2.45448 2.58876,-3.21648 2.52909,-1.35353 2.54018,-1.31132 0.48124,1.83103 -2.41009,3.67825 -3.07,3.97606 -3.07,1.38545 z M 292.5,381.10261 c -3.60295,-0.63701 -3.05149,-0.8103 3.125,-0.98197 14.40992,-0.40053 32.84569,-6.17745 35.49165,-11.12146 0.88643,-1.65633 3.20005,-2.66809 7.36431,-3.2205 7.90854,-1.0491 16.4742,-6.57127 21.4811,-13.84854 3.04052,-4.41923 3.66235,-6.2003 2.60824,-7.47043 -1.03667,-1.24911 -0.93397,-1.84048 0.40913,-2.35587 1.39695,-0.53606 1.69508,-2.79 1.34911,-10.19961 -0.24426,-5.23132 -0.80208,-10.63934 -1.2396,-12.01784 -0.9004,-2.83691 1.28954,-6.13639 4.07285,-6.13639 1.20846,0 1.58055,0.717 1.06681,2.05578 -0.8838,2.30312 2.46836,6.69422 5.11036,6.69422 0.93582,0 2.64032,-1.96875 3.78778,-4.375 2.3183,-4.86152 2.64644,-4.99429 7.2074,-2.91617 3.5026,1.59588 3.50826,1.50578 -0.83033,13.22066 -1.90953,5.15606 -10.41241,17.63094 -14.70246,21.57051 -0.37432,0.34375 -2.61286,2.875 -4.97453,5.625 -8.67556,10.10213 -25.40554,19.73676 -36.64878,21.10569 -3.27083,0.39825 -7.28219,1.59895 -8.91414,2.66825 -3.18509,2.08695 -18.0401,3.06926 -25.7639,1.70367 z M 215.75,345.5 c -0.44486,-1.1593 -0.5276,-2.38908 -0.18385,-2.73283 0.34375,-0.34374 0.98899,0.32353 1.43385,1.48283 0.44486,1.1593 0.5276,2.38907 0.18385,2.73282 -0.34375,0.34375 -0.98899,-0.32352 -1.43385,-1.48282 z m -6.75153,-12.43832 c -0.89458,-1.01378 -1.28326,-2.39863 -0.86372,-3.07745 1.33067,-2.15309 2.80379,-1.33895 3.42119,1.89077 0.67266,3.51883 -0.15899,3.90471 -2.55747,1.18668 z m 62.18376,-1.59819 c -3.05648,-1.94508 -6.37847,-4.53567 -7.3822,-5.75684 -1.00374,-1.22119 -4.88708,-3.57454 -8.62964,-5.22968 -3.74258,-1.65515 -6.48924,-3.3248 -6.1037,-3.71033 0.38555,-0.38554 2.58139,0.27418 4.87965,1.46605 5.55242,2.87943 20.52471,6.71912 26.30464,6.74589 5.48471,0.0254 17.60908,-2.40831 18.49902,-3.71327 0.34375,-0.50406 2.41958,-1.83581 4.61295,-2.95945 5.24635,-2.68762 20.09724,-19.6329 25.9333,-29.59063 4.75676,-8.11618 15.24519,-21.21523 16.98706,-21.21523 0.53879,0 0.67895,3.51563 0.31147,7.8125 -0.66237,7.7446 -2.90924,12.1875 -6.16352,12.1875 -0.92469,0 -1.68126,0.84375 -1.68126,1.875 0,2.27251 -2.00916,2.48036 -3.02084,0.3125 -0.57232,-1.22643 -0.89179,-1.20905 -1.48525,0.0808 -0.41586,0.90381 -2.14907,2.1729 -3.85161,2.8202 -1.70253,0.6473 -2.8804,1.82224 -2.61749,2.61098 0.26291,0.78873 -0.81636,2.72846 -2.39839,4.31048 -1.58203,1.58204 -2.87642,3.72595 -2.87642,4.76426 0,1.03832 -1.08571,2.4689 -2.4127,3.17908 -1.32699,0.71019 -2.59261,2.5581 -2.8125,4.10649 -0.23421,1.6492 -1.2784,2.82151 -2.52105,2.8304 -1.16667,0.009 -3.72871,1.55521 -5.69339,3.4375 -1.96469,1.88228 -4.46834,3.42234 -5.56367,3.42234 -1.09533,0 -4.43955,1.39947 -7.4316,3.10993 -2.99205,1.71048 -6.64623,3.11673 -8.12039,3.125 -1.47417,0.009 -4.48679,1.70257 -6.6947,3.76507 -2.20791,2.06249 -4.12602,3.75 -4.26246,3.75 -0.13645,0 -2.74884,-1.59143 -5.80531,-3.53652 z M 278.125,296.8953 c -20.2411,-2.85961 -21.10054,-5.0203 -1.99689,-5.0203 7.4955,0 13.4066,0.36035 13.13576,0.80078 -0.82211,1.33693 4.92298,4.31663 7.92363,4.10961 1.54688,-0.10675 2.8125,0.29165 2.8125,0.88529 0,1.44698 -8.20244,1.15625 -21.875,-0.77538 z m 5,-14.98415 c -4.8125,-0.83825 -11,-2.1549 -13.75,-2.92586 -2.75,-0.77096 -10.50331,-1.78617 -17.22959,-2.25598 -6.72626,-0.46982 -12.5149,-1.31588 -12.86362,-1.88012 -0.98006,-1.58578 5.28197,-2.72596 9.79671,-1.78376 2.22558,0.46446 8.5465,1.29173 14.0465,1.8384 5.5,0.54666 10.99675,1.41937 12.21499,1.93933 2.09827,0.89559 17.25817,-0.74853 27.50132,-2.98257 2.59396,-0.56575 4.96385,-0.6281 5.2664,-0.13856 0.30255,0.48955 -1.33315,2.94611 -3.6349,5.45902 -4.70522,5.13691 -6.33413,5.34523 -21.34781,2.7301 z m 11.78168,-16.5962 c -1.66743,-1.15636 -4.15668,-3.14381 -5.53168,-4.41655 -1.375,-1.27274 -4.32812,-3.44768 -6.5625,-4.83319 -2.23437,-1.38551 -4.0625,-2.67726 -4.0625,-2.87056 0,-0.1933 3.79688,-2.19452 8.4375,-4.44715 4.64063,-2.25264 9.4306,-4.95619 10.6444,-6.00789 2.1054,-1.82425 2.09811,-2.03181 -0.15854,-4.5134 -1.30098,-1.43066 -3.02179,-4.65285 -3.82398,-7.1604 -0.80222,-2.50755 -2.57782,-5.84968 -3.94581,-7.42698 -1.41013,-1.62592 -2.14827,-3.7114 -1.7045,-4.81583 0.43052,-1.0714 1.08547,-5.13276 1.45545,-9.02526 0.56089,-5.90093 0.22998,-7.69901 -1.99091,-10.81796 -5.21079,-7.31788 -2.73455,-13.85457 7.54979,-19.92968 1.85749,-1.09724 3.699,-3.27697 4.09226,-4.84385 0.94294,-3.75697 7.7182,-10.2087 13.19434,-12.56427 2.40625,-1.03505 6.80925,-4.64043 9.78444,-8.01195 5.26457,-5.96588 10.19065,-7.95415 12.09056,-4.88003 0.4249,0.6875 1.88414,1.25 3.24275,1.25 3.92121,0 8.59561,3.74261 10.56686,8.46048 0.99846,2.38966 1.81539,4.55738 1.81539,4.81717 0,1.17504 -10.90511,0.31724 -12.18046,-0.95811 -1.07394,-1.07394 -2.46029,-1.00088 -5.5625,0.29317 -2.27261,0.94799 -4.91589,1.5485 -5.87394,1.33447 -0.95805,-0.21404 -2.08305,0.0759 -2.5,0.64433 -0.41695,0.56842 -3.15839,2.21499 -6.09206,3.65904 l -5.33398,2.62554 9.08398,0.0964 c 13.17895,0.13989 15.78161,1.48907 25.63252,13.28743 2.694,3.22659 2.63358,17.00434 -0.0865,19.72442 -0.91461,0.91463 -1.41599,2.40382 -1.11415,3.30932 0.95221,2.85665 -2.58275,13.81468 -9.20036,28.52022 -0.9749,2.1664 -1.77254,4.59023 -1.77254,5.38628 0,0.79603 -0.55606,1.10368 -1.23569,0.68366 -0.67962,-0.42004 -0.94103,0.004 -0.58091,0.9426 0.9133,2.38 -3.85435,6.62174 -5.12743,4.56184 -0.51823,-0.8385 -0.42269,-1.20347 0.21231,-0.81102 0.635,0.39245 1.20899,-1.36295 1.27554,-3.90088 0.0734,-2.80027 2.68858,-9.95104 6.65182,-18.18842 7.41473,-15.41108 8.17811,-18.15712 5.9099,-21.25907 -1.40053,-1.91534 -2.29247,-2.02493 -6.73805,-0.82785 -4.66523,1.25627 -11.6175,0.24109 -11.6175,-1.69635 0,-1.33179 5.58458,-5.70464 7.2854,-5.70464 2.42999,0 5.12576,-3.7238 5.17485,-7.14827 0.0281,-1.95968 -0.51031,-2.56219 -1.83525,-2.05377 -1.17953,0.45263 -1.875,-0.0136 -1.875,-1.25712 0,-1.62329 -5.74616,-5.79084 -7.98434,-5.79084 -0.33466,0 -0.32246,1.82813 0.0271,4.0625 0.70635,4.51477 -1.9877,9.39162 -4.37354,7.9171 -0.80301,-0.49629 -1.06161,-1.5666 -0.57468,-2.37848 0.53703,-0.89538 0.0769,-0.82077 -1.16962,0.18965 -3.07065,2.48909 -7.15271,0.63284 -8.00755,-3.64131 -0.40145,-2.0072 -1.13491,-3.64946 -1.62991,-3.64946 -1.34259,0 -5.03749,4.36546 -5.03749,5.95169 0,0.75891 -1.11358,1.73327 -2.47461,2.16525 -1.36103,0.43197 -2.41941,1.17301 -2.35198,1.64673 0.0675,0.47373 -0.0143,1.2832 -0.18164,1.79883 -0.16735,0.51563 -0.40223,1.35938 -0.52197,1.875 -0.88524,3.81226 -2.33744,6.4361 -3.89239,7.03279 -2.73325,1.04885 -2.2923,2.96472 3.16348,13.74498 3.43094,6.77932 4.74918,10.76013 4.23786,12.79739 -0.91779,3.65678 2.03081,24.23734 3.47251,24.23734 0.57682,0 1.04874,1.05613 1.04874,2.34695 0,1.29081 0.84375,3.04719 1.875,3.90305 2.6615,2.20885 2.39125,2.904 -2.1875,5.62671 -5.46653,3.25062 -7.45284,3.41956 -11.03083,0.93824 z m 41.50478,-86.90349 c -2.08108,-2.08108 -3.25974,-0.0135 -1.32277,2.3204 1.17147,1.41154 1.84899,1.58012 2.19375,0.54583 0.27435,-0.82304 -0.11763,-2.11285 -0.87098,-2.86623 z m -68.81757,71.20549 c -2.35461,-0.82057 -4.51086,-2.19507 -4.79166,-3.05445 -0.89121,-2.7274 5.11763,-1.71822 9.07277,1.52375 4.13141,3.38648 2.6075,3.93135 -4.28111,1.5307 z m 94.35412,-54.49881 c -0.4401,-0.7121 0.10213,-3.03946 1.20481,-5.17194 1.13979,-2.20411 2.25569,-8.25835 2.58597,-14.02992 0.31953,-5.58399 0.75668,-10.32842 0.97143,-10.54317 0.21477,-0.21476 2.16782,-0.035 4.34013,0.39947 3.8485,0.7697 3.94965,0.96301 3.94965,7.54882 0,6.65558 -3.46869,17.53854 -4.61869,14.4911 -0.99344,-2.63251 -2.88131,-1.73569 -2.88131,1.36876 0,3.3621 -4.30091,7.96117 -5.55199,5.93688 z m -129.98372,-5.83243 c -2.54747,-2.54746 -2.5027,-6.61891 0.1045,-9.49978 1.9411,-2.1449 1.90846,-2.28593 -0.5291,-2.28593 -1.4288,0 -4.18787,1.32929 -6.13123,2.95396 -1.94337,1.62468 -4.93966,3.34585 -6.65841,3.82484 -2.93823,0.81884 -2.87798,0.63957 1.00797,-2.9993 2.27313,-2.1286 5.80047,-4.20369 7.8385,-4.6113 2.03805,-0.4076 4.00829,-1.23095 4.37832,-1.82965 1.19833,-1.93896 -4.95414,-1.09974 -10.54879,1.4389 -6.64133,3.01357 -6.426,3.01032 -6.426,0.0973 0,-3.34494 9.98552,-5.61031 19.5923,-4.44483 8.1358,0.98703 10.85604,2.0829 15.4077,6.2072 1.71875,1.55738 5.375,4.01917 8.125,5.47065 4.51502,2.3831 4.63626,2.56419 1.25,1.86698 -2.0625,-0.42465 -4.875,-1.54504 -6.25,-2.48975 -1.375,-0.94473 -3.90625,-2.68679 -5.625,-3.87125 l -3.125,-2.1536 2.5,2.95185 2.5,2.95185 -2.84201,-1.49166 c -3.0882,-1.62088 -5.23653,-0.38979 -6.8762,3.94038 -0.91823,2.42492 -4.05224,2.92695 -5.33319,0.85434 -0.45318,-0.73325 0.21587,-2.09351 1.48676,-3.0228 2.59211,-1.8954 1.59436,-3.85462 -1.38145,-2.71269 -2.29944,0.88238 -2.58834,7.15923 -0.42891,9.31865 0.825,0.825 1.14642,1.5 0.71429,1.5 -0.43215,0 -1.66965,-0.88392 -2.75,-1.96428 z m 18.89343,-3.15077 c -0.6562,-2.50933 -0.58628,-2.52677 1.72922,-0.43126 2.87085,2.59808 2.97147,3.04632 0.68385,3.04632 -0.95107,0 -2.03694,-1.17677 -2.41307,-2.61506 z M 183.371,173.59519 c -1.16655,-3.05458 -2.12178,-7.22247 -2.12271,-9.26198 -9.4e-4,-2.03951 -0.77862,-8.20821 -1.72817,-13.70821 -0.94956,-5.5 -1.66073,-11.125 -1.58038,-12.5 0.0804,-1.375 -0.32794,-7.35498 -0.9073,-13.28884 -0.72994,-7.47624 -0.58951,-12.84942 0.45737,-17.5 2.40052,-10.663859 5.95918,-31.66085 5.46283,-32.231994 -1.03345,-1.189157 -2.03451,1.365728 -2.64003,6.737786 -0.66557,5.904937 -2.81261,9.182847 -2.81261,4.294047 0,-5.420739 4.07029,-23.04623 5.7697,-24.984425 C 184.22136,60.06619 185,58.30676 185,57.241729 185,48.384507 203.90284,28.297204 221.53945,18.412694 250.51221,2.1747916 280.63128,-1.3459165 305.44821,8.6043443 323.0645,15.667531 326.25,17.529406 326.25,20.762659 c 0,3.284176 1.19524,3.7921 3.5,1.487341 1.08046,-1.080459 1.5,-1.101093 1.5,-0.07378 0,0.784426 -0.5625,1.773872 -1.25,2.198771 -0.6875,0.424899 -1.25,1.670276 -1.25,2.767506 0,1.799724 0.22371,1.792504 2.28592,-0.07378 3.23415,-2.926866 3.96408,-2.601775 3.96408,1.7655 0,3.26539 0.3709,3.716517 2.5,3.040765 3.03389,-0.96292 3.12054,-0.234101 0.45567,3.83299 -2.96658,4.52759 -1.30173,5.033384 2.33633,0.709792 l 3.10309,-3.687806 3.15243,3.592585 c 1.73384,1.975921 3.4799,4.445943 3.88014,5.488938 0.41591,1.083838 1.54683,1.582027 2.63949,1.162735 1.09159,-0.418881 2.22324,0.07804 2.63776,1.158264 0.39929,1.040536 2.02251,2.217291 3.60715,2.615011 4.19284,1.052334 7.04124,6.235744 7.85896,14.3014 0.39458,3.89185 1.43262,8.201092 2.30677,9.576092 1.75557,2.761436 4.37366,15.699577 3.47207,17.158376 -0.31346,0.507197 -0.59846,6.416553 -0.63334,13.131901 -0.0579,11.14683 -1.92816,34.94365 -3.04982,38.80502 -0.58833,2.02532 -14.87953,-11.84063 -16.02959,-15.5526 -0.48549,-1.56694 -0.23465,-3.08069 0.5955,-3.59375 0.92475,-0.57153 0.98808,-1.16399 0.17825,-1.6677 -0.70178,-0.4365 -1.53661,-9.03799 -1.89183,-19.492371 -0.41374,-12.176783 -1.1247,-18.874101 -2.03582,-19.177808 -0.77003,-0.256675 -2.58446,-2.805418 -4.03206,-5.663875 l -2.632,-5.197186 2.66542,2.381235 c 3.11696,2.784617 3.36668,1.477408 0.86266,-4.515588 -3.25353,-7.786761 -8.62234,-9.309278 -5.69723,-1.615647 0.69734,1.834135 1.01654,3.741483 0.70932,4.23855 -0.3072,0.497069 0.81378,3.319781 2.49107,6.272697 1.67728,2.952916 3.04961,5.661645 3.04961,6.019401 0,1.319223 -3.75145,-2.511004 -3.79159,-3.871204 -0.058,-1.964974 -3.9144,-6.37062 -6.41401,-7.32748 -1.14434,-0.438055 -4.07849,0.222112 -6.52034,1.467037 -2.44184,1.244924 -5.72432,2.333603 -7.29439,2.419285 -4.5141,0.246344 -7.44868,0.800208 -13.4748,2.543192 -3.09107,0.894055 -6.71355,1.836127 -8.04995,2.093495 -1.33641,0.257367 -4.72321,1.545961 -7.52625,2.86354 C 286.13294,86.24297 271.7267,88.139556 265,86.217805 L 259.375,84.610799 265,82.947733 c 8.42767,-2.491693 14.77205,-5.550712 15.51214,-7.479374 0.74871,-1.95111 -1.93393,-2.275549 -5.2166,-0.630896 -5.68866,2.850076 -14.2456,6.412537 -15.40275,6.412537 -0.70968,0 -0.94269,-0.5625 -0.51779,-1.25 0.4249,-0.6875 1.91123,-1.25 3.30294,-1.25 1.48583,0 2.30217,-0.645006 1.97754,-1.5625 -0.33941,-0.959245 -2.43069,-1.453169 -5.41667,-1.279319 l -4.86381,0.283181 4.0625,-2.001809 c 4.06723,-2.004142 5.82169,-5.13209 2.07137,-3.692958 -1.09512,0.420236 -3.48575,1.078423 -5.31249,1.462636 -3.03559,0.638462 -3.10627,0.570212 -0.82138,-0.793173 1.375,-0.820459 3.454,-2.684089 4.62001,-4.1414 1.69683,-2.120753 2.4329,-2.337763 3.6875,-1.087158 1.79251,1.786813 7.31749,2.125076 7.31749,0.44801 0,-0.61297 -1.50106,-1.491232 -3.3357,-1.951696 -1.83463,-0.460463 -4.49104,-1.646443 -5.90313,-2.63551 C 258.56054,60.256919 258.50135,60 260.34686,60 c 1.18423,0 2.15314,0.5625 2.15314,1.25 0,0.6875 1.1582,1.25 2.57378,1.25 1.52451,0 2.23365,-0.550312 1.73948,-1.349896 -0.45886,-0.742444 0.38949,-2.207055 1.8852,-3.254694 1.49572,-1.047639 2.43932,-2.634878 2.0969,-3.527198 -0.40629,-1.058761 0.86734,-1.901908 3.66604,-2.426947 2.35872,-0.442501 4.2886,-1.341559 4.2886,-1.997906 0,-0.656348 1.0918,-1.193359 2.42622,-1.193359 2.85604,0 4.44121,-1.970866 2.53347,-3.149911 -0.92563,-0.572068 -0.88521,-1.359904 0.13267,-2.586374 1.16296,-1.401295 1.0247,-1.763715 -0.67288,-1.763715 -1.22617,0 -2.73981,1.597975 -3.5521,3.75 -0.77852,2.0625 -1.71403,3.78952 -2.07893,3.837823 -1.24634,0.164982 -10.65746,0.205083 -13.72595,0.05849 -2.38195,-0.1138 -2.72916,-0.479644 -1.5625,-1.64631 2.12545,-2.125446 1.8701,-3.111639 -1,-3.862186 -3.53424,-0.924224 -3.10046,-3.221394 0.89515,-4.740523 2.72516,-1.036107 3.0335,-1.519558 1.5625,-2.44992 -3.11514,-1.970225 -6.91104,-1.331567 -11.79838,1.985075 -4.55028,3.087908 -7.75508,3.732223 -5.93171,1.192554 1.44965,-2.019151 7.98803,-6.153509 13.70994,-8.669094 2.92188,-1.284575 5.3125,-2.875263 5.3125,-3.534862 0,-2.036576 -8.9131,0.326612 -13.02159,3.4525 -4.25785,3.239517 -10.72841,5.327902 -10.72841,3.46261 0,-0.651677 1.33584,-1.793514 2.96852,-2.537416 1.63269,-0.743902 3.59274,-3.143188 4.35568,-5.331745 l 1.38715,-3.979198 -3.41817,2.19779 c -1.88,1.208784 -4.52772,2.95528 -5.88382,3.881101 C 239.30328,29.242509 236.75655,30 235,30 c -1.75655,0 -4.37,0.823891 -5.80766,1.830869 -1.43766,1.006977 -2.96563,1.479176 -3.39548,1.04933 -0.42983,-0.429846 -1.91344,0.242815 -3.29686,1.494801 -3.05898,2.768338 -4.46488,1.796397 -2.5573,-1.767942 2.66041,-4.971028 -1.89011,-2.878691 -7.24322,3.330442 -11.41379,13.23896 -13.46705,15.345394 -16.76198,17.196009 L 192.5,55.0642 l -0.0644,-4.0946 -0.0644,-4.0946 -1.90461,5 c -1.04755,2.75 -2.73675,6.40625 -3.75379,8.125 -3.65261,6.172779 -5.52584,11.386695 -4.61842,12.854921 0.59711,0.966153 1.18376,0.394049 1.65862,-1.617522 0.97194,-4.117218 2.96556,-3.843227 3.74703,0.514967 l 0.625,3.485624 3.56041,-2.806399 c 2.57347,-2.028477 3.81637,-2.392227 4.48384,-1.312251 0.60792,0.983639 2.0668,-0.233602 4.26982,-3.562596 1.84044,-2.781209 3.90084,-5.056744 4.57859,-5.056744 2.32574,0 1.22661,2.255648 -3.3094,6.791666 -2.49793,2.497918 -4.177,4.906344 -3.73128,5.352059 0.44572,0.445716 2.65687,-0.979284 4.91368,-3.166666 2.2568,-2.187383 4.639,-3.980524 5.29377,-3.98476 0.65476,-0.0042 2.82105,-0.858046 4.81396,-1.897356 4.53255,-2.363739 5.20004,-1.816115 1.98833,1.631257 -1.36774,1.468096 -2.4868,3.214517 -2.4868,3.880936 0,0.666418 -1.6016,2.518063 -3.5591,4.114766 -4.46775,3.644269 -9.74806,11.470078 -15.87514,23.528098 -4.52393,8.90306 -4.77194,10.00794 -4.92639,21.94838 -0.124,9.58686 -0.66462,13.29006 -2.27601,15.59063 -2.50647,3.5785 -2.92992,21.33462 -0.78545,32.93518 1.73216,9.3701 0.95869,11.35077 -1.70691,4.371 z M 355.75521,82.838541 c -0.41536,-0.415364 -0.7108,0.322918 -0.65652,1.640625 0.06,1.456179 0.35617,1.752375 0.7552,0.755209 0.36108,-0.902344 0.31668,-1.980469 -0.0986,-2.395834 z M 196.41067,78.4375 c 1.3589,-2.550277 1.30473,-2.652551 -0.58102,-1.096944 -1.14381,0.943555 -2.07965,2.20918 -2.07965,2.8125 0,1.909355 1.11079,1.193142 2.66067,-1.715556 z M 267.5,74.301229 c 0,-1.071824 -0.5625,-1.601128 -1.25,-1.176229 -0.6875,0.424899 -1.25,1.301845 -1.25,1.948771 0,0.646926 0.5625,1.176229 1.25,1.176229 0.6875,0 1.25,-0.876947 1.25,-1.948771 z m 60.15945,-5.130879 c 1.5556,-1.885754 1.45332,-1.939925 -1.09695,-0.58102 -2.9087,1.549888 -3.62491,2.66067 -1.71555,2.66067 0.60331,0 1.86894,-0.935843 2.8125,-2.07965 z M 351.25,66.875 c 0,-1.03125 -0.54485,-1.875 -1.21078,-1.875 -0.66591,0 -0.88698,0.84375 -0.49126,1.875 0.39574,1.03125 0.94058,1.875 1.21078,1.875 0.27019,0 0.49126,-0.84375 0.49126,-1.875 z M 314.45194,51.624741 c -0.5806,-1.512997 -1.14855,-1.678132 -2.18994,-0.63674 -1.0414,1.041393 -0.96157,1.941605 0.30779,3.471089 1.93877,2.336085 3.16032,0.49654 1.88215,-2.834349 z m 22.61671,-1.053651 c 1.16285,-3.030324 -0.45973,-3.57739 -2.01135,-0.678147 -0.96747,1.807735 -0.9865,2.607057 -0.062,2.607057 0.73326,0 1.6663,-0.86801 2.0734,-1.92891 z M 293.75,44.197457 c 0,-1.771225 -6.03056,-1.566392 -6.72055,0.228268 -0.27761,0.72207 1.10605,1.279372 3.11024,1.252725 1.98567,-0.0264 3.61031,-0.692848 3.61031,-1.480993 z m -2.93297,-5.614998 c -1.65408,-0.96144 -2.69882,-0.950671 -3.6875,0.03801 -1.00604,1.006041 -0.38119,1.36924 2.30797,1.34152 3.23264,-0.03332 3.40281,-0.203489 1.37953,-1.37953 z m -7.18934,-2.92442 c 0.96398,-0.01817 1.8975,-1.009984 2.07447,-2.204028 0.25274,-1.705183 -0.14537,-1.920975 -1.8555,-1.005745 -1.1975,0.640884 -2.97476,2.14768 -3.94946,3.348437 -1.54665,1.90533 -1.53356,2.03754 0.10275,1.038783 1.03125,-0.629425 2.66371,-1.159276 3.62769,-1.177447 z M 321.25,26.801229 C 321.25,26.498053 320.6875,26.25 320,26.25 c -0.6875,0 -1.25,0.595697 -1.25,1.323771 0,0.728074 0.5625,0.976128 1.25,0.551229 0.6875,-0.424899 1.25,-1.020595 1.25,-1.323771 z m -38.125,-6.10981 c 7.36511,-3.291649 7.41008,-3.341838 2.5,-2.790545 -6.40643,0.719301 -19.375,4.506895 -19.375,5.658651 0,1.95303 9.8234,0.283426 16.875,-2.868106 z m 18.09013,2.475608 c 2.47896,-2.986965 0.98002,-4.689408 -2.18004,-2.476015 -1.5548,1.089024 -2.50305,2.504055 -2.10723,3.144515 1.03363,1.67245 2.53929,1.437677 4.28727,-0.6685 z M 316.875,21.911045 c 4.4638,-1.60814 4.63136,-1.807196 1.5625,-1.856179 C 316.54688,20.024691 315,19.390625 315,18.645834 c 0,-2.578003 -2.92915,-0.366772 -3.13026,2.363052 -0.11113,1.507613 -0.15533,2.732645 -0.0984,2.722294 0.057,-0.01037 2.3536,-0.829413 5.1036,-1.820135 z M 233.05214,162.53665 c -8.45545,-4.75514 -9.10614,-4.91651 -15.625,-3.87526 -7.61322,1.21605 -8.55645,0.90854 -6.62189,-2.15884 2.56753,-4.071 19.19475,-4.71065 19.19475,-0.73844 0,0.95474 0.70313,1.78277 1.5625,1.84005 6.57128,0.43809 15.36024,3.17849 18.53593,5.77952 1.08538,0.88897 2.63226,1.61632 3.4375,1.61632 0.80523,0 1.46407,0.46624 1.46407,1.03609 0,0.56985 -2.95312,1.132 -6.5625,1.24921 -5.55308,0.18034 -7.9196,-0.55009 -15.38536,-4.74865 z m 136.967,0.54371 c 0.0341,-2.15192 2.31934,-4.90856 3.27598,-3.9519 0.51209,0.51209 -0.0199,1.88195 -1.18202,3.04417 -1.16221,1.16219 -2.10449,1.57067 -2.09396,0.90773 z m -0.16717,-7.72388 c -0.17087,-1.133 -0.15771,-1.24954 0.76872,-6.80554 0.95535,-5.72949 8.12931,-11.6432 8.12931,-6.70124 0,3.56508 -4.07328,11.98535 -6.40031,13.23075 -1.29233,0.69163 -2.4163,0.81584 -2.49772,0.27603 z m -27.03947,-5.70285 c -3.12432,-1.4282 -3.75728,-3.40363 -1.09055,-3.40363 1.74233,0 5.29832,3.43959 4.39368,4.24985 -0.26984,0.24169 -1.75625,-0.13911 -3.30313,-0.84622 z M 331.25,142.53922 c 0,-0.66591 0.84375,-0.88698 1.875,-0.49126 1.03125,0.39574 1.875,0.94058 1.875,1.21078 0,0.27018 -0.84375,0.49126 -1.875,0.49126 -1.03125,0 -1.875,-0.54485 -1.875,-1.21078 z m -16.84099,-2.42133 c 2.26564,-2.21553 14.40982,-6.36789 18.62379,-6.36789 2.4386,0 5.42383,1.07458 7.14123,2.57057 2.77603,2.41821 2.78912,2.49231 0.22065,1.25 -4.20709,-2.03483 -11.76359,-1.57507 -19.85248,1.20792 -4.04205,1.39066 -6.80197,1.9934 -6.13319,1.3394 z m 10.91142,-12.72245 c 3.15682,-1.83843 11.88411,-1.9409 13.66456,-0.16045 1.18668,1.18668 -0.3677,1.50677 -7.17249,1.477 -6.53172,-0.0286 -8.14271,-0.35528 -6.49208,-1.31655 z M 250.9117,81.602193 c -1.96549,-0.296941 -4.63502,-2.108062 -6.17257,-4.18771 -1.4901,-2.015466 -3.72849,-3.664483 -4.9742,-3.664483 -1.24572,0 -2.26493,-0.84375 -2.26493,-1.875 0,-1.166666 1.18055,-1.875 3.125,-1.875 1.94445,0 3.125,-0.708334 3.125,-1.875 0,-1.924792 3.26391,-2.462739 6.77276,-1.116264 1.08749,0.417305 1.97724,1.294252 1.97724,1.948772 0,0.654518 -0.5625,0.842391 -1.25,0.417492 -2.18608,-1.351073 -4.03334,0.652435 -2.40764,2.611285 1.13877,1.372128 1.08285,1.772154 -0.25181,1.801726 -1.05054,0.02327 -0.76795,0.587661 0.72901,1.45597 2.42608,1.407242 2.42608,1.425189 0,2.374133 -2.11561,0.827505 -2.00258,0.967995 0.83989,1.04403 1.80644,0.04833 3.98469,0.931606 4.84055,1.962856 0.85586,1.03125 1.06536,1.79072 0.46555,1.68771 -0.5998,-0.103012 -2.64904,-0.422743 -4.55385,-0.710518 z M 224.70722,70.036641 c -3.44547,-3.134145 -3.69227,-3.696005 -1.58222,-3.602106 1.375,0.06119 4.1875,0.540648 6.25,1.065465 3.14331,0.799839 3.28305,0.97814 0.86372,1.102106 -3.34418,0.171358 -2.55731,2.28872 1.45169,3.906258 l 2.68459,1.08317 -2.79278,0.07924 c -1.53603,0.04358 -4.62978,-1.591778 -6.875,-3.634126 z M 188.75,68.883736 c 0,-0.613945 0.8151,-1.429049 1.81134,-1.811341 1.21065,-0.46457 1.58084,-0.09439 1.11626,1.116265 -0.7587,1.977164 -2.9276,2.492106 -2.9276,0.695076 z M 235,67.950304 c 0,-0.439834 0.98438,-1.546944 2.1875,-2.460247 2.08334,-1.581475 2.08334,-1.662442 0,-1.700303 C 235.98438,63.767891 235,63.218786 235,62.569524 c 0,-1.391037 -9.45156,-0.450997 -12.64404,1.25756 -1.41387,0.756685 -2.482,0.730258 -2.97887,-0.0737 -0.42605,-0.689363 -0.03,-1.253384 0.88015,-1.253384 0.91013,0 3.75379,-1.125 6.31923,-2.5 2.56547,-1.375 5.61094,-2.5 6.76775,-2.5 2.35349,0 9.87984,-2.225434 13.20132,-3.903445 3.00063,-1.515917 3.48602,-1.383286 2.67475,0.730861 -0.38568,1.005079 -1.74558,2.158874 -3.02198,2.56399 -1.3751,0.43644 -2.03921,1.470215 -1.62983,2.537046 0.38657,1.007397 -0.22377,2.151469 -1.38563,2.597314 -1.14209,0.438262 -1.7806,1.568004 -1.41892,2.510537 0.4198,1.093953 -0.2323,1.713697 -1.80316,1.713697 -1.35342,0 -2.46077,0.5625 -2.46077,1.25 0,0.6875 -0.5625,1.25 -1.25,1.25 -0.6875,0 -1.25,-0.359864 -1.25,-0.799696 z M 253.125,63.75 c -0.4249,-0.6875 -0.17685,-1.25 0.55122,-1.25 0.72808,0 1.32378,0.5625 1.32378,1.25 0,0.6875 -0.24805,1.25 -0.55122,1.25 -0.30318,0 -0.89888,-0.5625 -1.32378,-1.25 z M 198.75,61.738912 c 0,-1.591636 2.3892,-4.463956 5.625,-6.762438 1.92611,-1.36817 1.78694,-0.923667 -0.60627,1.936352 -1.70845,2.041695 -3.53658,4.246549 -4.0625,4.899674 -0.59447,0.738239 -0.95623,0.710399 -0.95623,-0.07359 z m 51.14411,-1.486247 c 1.4287,-2.721496 7.29159,-5.983629 8.52941,-4.745803 1.05023,1.050228 -1.03668,3.243138 -3.08637,3.243138 -1.10841,0 -3.12581,0.984375 -4.48311,2.1875 -2.39791,2.125544 -2.4251,2.106148 -0.95993,-0.684835 z m -38.70314,-3.755986 c 3.74614,-3.386464 10.70793,-7.307884 9.49784,-5.349925 -1.05214,1.702396 0.0349,1.722891 3.14337,0.05926 1.66666,-0.891972 2.41782,-0.891972 2.41782,0 0,2.349116 5.314,1.348025 11.14017,-2.098671 4.94602,-2.925999 9.50692,-3.795615 11.22545,-2.14033 1.08459,1.044673 -2.8347,4.282985 -5.18363,4.282985 -1.38155,0 -4.4207,1.179702 -6.75368,2.62156 -2.36591,1.462213 -5.15093,2.272681 -6.2976,1.832663 -1.13071,-0.433893 -2.39242,-0.244285 -2.80381,0.421352 -0.41139,0.665636 -3.13208,1.497615 -6.04598,1.848841 -2.9139,0.351227 -5.91955,1.022732 -6.67921,1.492233 -0.75967,0.469501 -1.83796,0.114625 -2.3962,-0.788628 -0.67682,-1.095132 -1.58694,-1.252597 -2.73177,-0.472643 -0.94424,0.643292 -0.28398,-0.125623 1.46723,-1.708699 z M 233.75,42.776249 c 0,-0.599755 1.40625,-2.411568 3.125,-4.026249 2.13955,-2.010001 3.11261,-2.374349 3.08572,-1.155392 -0.0417,1.890332 -6.21072,7.037177 -6.21072,5.181641 z"
       id="path3605"
       inkscape:connector-curvature="0" />
  </g>
  <g
     inkscape:groupmode="layer"
     id="layer3"
     inkscape:label="Bazinga"
     style="display:inline">
    <text
       xml:space="preserve"
       style="font-style:normal;font-variant:normal;font-weight:normal;font-stretch:normal;font-size:138.7502594px;line-height:125%;font-family:Verdana;-inkscape-font-specification:Verdana;letter-spacing:0px;word-spacing:0px;display:inline;fill:#000000;fill-opacity:1;stroke:none;stroke-width:1px;stroke-linecap:butt;stroke-linejoin:miter;stroke-opacity:1"
       x="49.309155"
       y="488.19574"
       id="text3338-4"
       sodipodi:linespacing="125%"
       transform="scale(0.99999841,1.0000016)"
       inkscape:export-xdpi="90"
       inkscape:export-ydpi="90"><tspan
         sodipodi:role="line"
         id="tspan3340-1"
         x="49.309155"
         y="488.19574"
         style="font-style:normal;font-variant:normal;font-weight:normal;font-stretch:condensed;font-size:138.7502594px;font-family:Impact;-inkscape-font-specification:'Impact Condensed'">BAZINGA!</tspan></text>
  </g>
</svg>
